<?xml version="1.0" encoding="UTF-8" standalone="no" ?>
<!DOCTYPE svg PUBLIC "-//W3C//DTD SVG 1.1//EN" "http://www.w3.org/Graphics/SVG/1.1/DTD/svg11.dtd">
<svg xmlns="http://www.w3.org/2000/svg" xmlns:xlink="http://www.w3.org/1999/xlink" version="1.1" width="640" height="480" viewBox="0 0 640 480" xml:space="preserve">
<desc>Created with Fabric.js 3.6.6</desc>
<defs>
</defs>
<g transform="matrix(1 0 0 1 187.53 56.33)"  >
<path style="stroke: none; stroke-width: 1; stroke-dasharray: none; stroke-linecap: butt; stroke-dashoffset: 0; stroke-linejoin: miter; stroke-miterlimit: 4; fill: rgb(255,0,7); fill-rule: nonzero; opacity: 1;"  transform=" translate(-8.5, -8.5)" d="M 8.301 6.422 c 0.437 0 0.769 -0.161 1.006 -0.484 c 0.181 -0.237 0.265 -0.617 0.265 -1.12 v -1.66 c 0 -0.503 -0.084 -0.873 -0.265 -1.11 c -0.238 -0.321 -0.57 -0.483 -1.006 -0.483 c -0.428 0 -0.76 0.161 -0.995 0.483 c -0.181 0.238 -0.266 0.608 -0.266 1.111 v 1.66 c 0 0.503 0.085 0.873 0.266 1.12 c 0.235 0.322 0.567 0.483 0.995 0.483 z M 7.893 2.988 c 0 -0.436 0.133 -0.654 0.408 -0.654 c 0.285 0 0.408 0.218 0.408 0.654 v 1.992 c 0 0.437 -0.123 0.664 -0.408 0.664 c -0.275 0 -0.408 -0.228 -0.408 -0.664 v -1.992 z M 10.35 6.071 c -0.048 -0.143 -0.075 -0.37 -0.075 -0.711 v -3.738 h 0.863 v 3.481 c 0 0.2 0 0.313 0.01 0.333 c 0.019 0.133 0.085 0.208 0.199 0.208 c 0.17 0 0.35 -0.133 0.54 -0.408 v -3.614 h 0.863 v 4.734 h -0.863 v -0.522 c -0.341 0.398 -0.663 0.588 -0.978 0.588 c -0.275 0 -0.474 -0.113 -0.559 -0.351 z M 13.633 11.811 v 0.436 h -0.854 v -0.436 c 0 -0.427 0.143 -0.646 0.427 -0.646 c 0.284 0.001 0.427 0.219 0.427 0.646 z M 4.354 1.774 c -0.208 -0.588 -0.416 -1.186 -0.617 -1.774 h 1.007 l 0.673 2.495 l 0.645 -2.495 h 0.968 l -1.148 3.785 v 2.571 h -0.948 v -2.571 c -0.086 -0.465 -0.276 -1.129 -0.58 -2.011 z M 15.283 8.785 c -0.171 -0.75 -0.788 -1.3 -1.518 -1.385 c -1.746 -0.19 -3.511 -0.19 -5.266 -0.19 s -3.52 0 -5.256 0.19 c -0.738 0.085 -1.346 0.635 -1.526 1.385 c -0.237 1.062 -0.247 2.22 -0.247 3.32 c 0 1.091 0 2.257 0.247 3.32 c 0.171 0.75 0.788 1.3 1.518 1.376 c 1.745 0.199 3.51 0.199 5.265 0.199 s 3.52 0 5.266 -0.199 c 0.729 -0.076 1.337 -0.626 1.518 -1.376 c 0.237 -1.062 0.247 -2.229 0.247 -3.32 c -0.001 -1.1 -0.001 -2.258 -0.248 -3.32 z M 5.483 9.743 h -1.014 v 5.398 h -0.949 v -5.398 h -0.997 v -0.892 h 2.96 v 0.892 z M 8.045 15.141 h -0.845 v -0.512 c -0.342 0.389 -0.664 0.579 -0.968 0.579 c -0.274 0 -0.474 -0.114 -0.55 -0.351 c -0.048 -0.142 -0.076 -0.361 -0.076 -0.692 v -3.709 h 0.845 v 3.453 c 0 0.2 0 0.304 0.009 0.333 c 0.02 0.132 0.086 0.199 0.199 0.199 c 0.172 0 0.352 -0.132 0.541 -0.398 v -3.586 h 0.845 v 4.684 z M 11.271 13.737 c 0 0.437 -0.02 0.749 -0.086 0.948 c -0.104 0.342 -0.342 0.522 -0.674 0.522 c -0.303 0 -0.598 -0.171 -0.883 -0.522 v 0.456 h -0.843 v -6.29 h 0.843 v 2.059 c 0.275 -0.342 0.57 -0.512 0.883 -0.512 c 0.332 0 0.57 0.18 0.674 0.531 c 0.066 0.19 0.086 0.502 0.086 0.939 v 1.869 z M 14.477 12.959 h -1.698 v 0.825 c 0 0.437 0.143 0.654 0.437 0.654 c 0.209 0 0.332 -0.113 0.38 -0.341 c 0.009 -0.047 0.019 -0.237 0.019 -0.579 h 0.863 v 0.124 c 0 0.275 0 0.465 -0.019 0.55 c -0.02 0.189 -0.096 0.36 -0.199 0.512 c -0.229 0.332 -0.579 0.503 -1.024 0.503 c -0.446 0 -0.779 -0.161 -1.025 -0.484 c -0.18 -0.228 -0.275 -0.598 -0.275 -1.101 v -1.641 c 0 -0.503 0.086 -0.863 0.266 -1.101 c 0.247 -0.323 0.579 -0.484 1.016 -0.484 c 0.428 0 0.759 0.161 1.005 0.484 c 0.172 0.237 0.257 0.597 0.257 1.101 v 0.978 z M 10.426 11.801 v 2.002 c 0 0.427 -0.124 0.635 -0.37 0.635 c -0.143 0 -0.285 -0.066 -0.428 -0.208 v -2.855 c 0.143 -0.143 0.285 -0.209 0.428 -0.209 c 0.246 0 0.37 0.218 0.37 0.635 z" stroke-linecap="round" />
</g>
</svg>