<?xml version="1.0" encoding="UTF-8"?>
<!DOCTYPE svg PUBLIC "-//W3C//DTD SVG 1.1//EN" "http://www.w3.org/Graphics/SVG/1.1/DTD/svg11.dtd">
<svg xmlns="http://www.w3.org/2000/svg" version="1.1" width="512px" height="512px" style="shape-rendering:geometricPrecision; text-rendering:geometricPrecision; image-rendering:optimizeQuality; fill-rule:evenodd; clip-rule:evenodd" xmlns:xlink="http://www.w3.org/1999/xlink">
<g><path style="opacity:0.982" fill="#000202" d="M 453.5,207.5 C 450.455,207.508 447.455,207.841 444.5,208.5C 432.366,138.05 394.7,86.2163 331.5,53C 297.347,36.6959 261.347,29.5293 223.5,31.5C 223.333,46.5037 223.5,61.5037 224,76.5C 232.833,85.3333 241.667,94.1667 250.5,103C 264.568,103.052 278.568,103.719 292.5,105C 307.029,119.195 321.196,133.695 335,148.5C 335.961,167.232 335.628,185.899 334,204.5C 328.652,210.015 323.152,215.348 317.5,220.5C 315.481,218.81 313.481,217.144 311.5,215.5C 309.856,213.519 308.19,211.519 306.5,209.5C 310.485,205.015 314.651,200.682 319,196.5C 319.667,182.5 319.667,168.5 319,154.5C 307.5,143 296,131.5 284.5,120C 271.167,119.667 257.833,119.333 244.5,119C 232.362,107.863 220.529,96.3631 209,84.5C 207.544,67.9034 207.044,51.2367 207.5,34.5C 187.836,36.899 169.169,42.5656 151.5,51.5C 159.516,59.6824 167.35,68.0158 175,76.5C 175.944,89.9031 175.611,103.236 174,116.5C 164,126.5 154,136.5 144,146.5C 143.934,157.905 143.267,169.238 142,180.5C 130.833,191.667 119.667,202.833 108.5,214C 101.589,215.384 94.5888,215.884 87.5,215.5C 87.3343,219.846 87.501,224.179 88,228.5C 101.363,241.529 114.363,254.862 127,268.5C 127.928,279.24 127.595,289.907 126,300.5C 118.667,307.833 111.333,315.167 104,322.5C 103.911,331.242 103.244,339.909 102,348.5C 94.6667,355.833 87.3333,363.167 80,370.5C 79.6848,371.908 80.0181,373.241 81,374.5C 114.439,413.309 156.606,436.642 207.5,444.5C 207.667,430.496 207.5,416.496 207,402.5C 202.333,397.833 197.667,393.167 193,388.5C 191.58,378.914 191.08,369.247 191.5,359.5C 182.494,359.666 173.494,359.5 164.5,359C 156.602,352.771 149.769,345.604 144,337.5C 143.05,327.067 143.383,316.734 145,306.5C 156.529,294.637 168.362,283.137 180.5,272C 204.563,271.03 228.563,271.363 252.5,273C 266.333,286.833 280.167,300.667 294,314.5C 295.628,327.405 295.961,340.405 295,353.5C 290.77,359.737 285.77,365.404 280,370.5C 279.934,381.905 279.267,393.238 278,404.5C 270.667,411.833 263.333,419.167 256,426.5C 255.5,433.158 255.334,439.825 255.5,446.5C 260.551,445.904 265.551,445.904 270.5,446.5C 271.067,448.982 271.734,451.316 272.5,453.5C 272.292,455.92 272.626,458.253 273.5,460.5C 193.589,471.142 126.089,447.142 71,388.5C 16.8789,322.56 2.21221,248.56 27,166.5C 55.4638,90.369 108.964,41.869 187.5,21C 273.967,3.81229 347.467,26.979 408,90.5C 436.286,123.414 454.119,161.414 461.5,204.5C 461.392,205.442 461.059,206.275 460.5,207C 458.19,207.497 455.857,207.663 453.5,207.5 Z"/></g>
<g><path style="opacity:1" fill="#00cbb2" d="M 453.5,207.5 C 454.659,214.109 455.326,220.776 455.5,227.5C 455.44,228.043 455.107,228.376 454.5,228.5C 433.43,221.199 412.264,214.199 391,207.5C 364.453,216.071 337.953,224.738 311.5,233.5C 311.5,227.5 311.5,221.5 311.5,215.5C 313.481,217.144 315.481,218.81 317.5,220.5C 323.152,215.348 328.652,210.015 334,204.5C 335.628,185.899 335.961,167.232 335,148.5C 321.196,133.695 307.029,119.195 292.5,105C 278.568,103.719 264.568,103.052 250.5,103C 241.667,94.1667 232.833,85.3333 224,76.5C 223.5,61.5037 223.333,46.5037 223.5,31.5C 261.347,29.5293 297.347,36.6959 331.5,53C 394.7,86.2163 432.366,138.05 444.5,208.5C 447.455,207.841 450.455,207.508 453.5,207.5 Z"/></g>
<g><path style="opacity:1" fill="#3c99e1" d="M 311.5,215.5 C 311.5,221.5 311.5,227.5 311.5,233.5C 304.49,235.893 297.49,238.393 290.5,241C 286.074,246.441 286.741,251.108 292.5,255C 303.87,258.735 315.204,262.568 326.5,266.5C 327.499,278.815 327.832,291.149 327.5,303.5C 315.805,304.351 307.972,310.351 304,321.5C 302.875,340.042 311.541,350.375 330,352.5C 334.784,368.944 344.451,381.61 359,390.5C 359.827,394.541 359.66,398.541 358.5,402.5C 341.861,409.82 325.528,417.654 309.5,426C 301.344,432.841 295.011,441.008 290.5,450.5C 284.499,451.5 278.499,452.5 272.5,453.5C 271.734,451.316 271.067,448.982 270.5,446.5C 265.551,445.904 260.551,445.904 255.5,446.5C 255.334,439.825 255.5,433.158 256,426.5C 263.333,419.167 270.667,411.833 278,404.5C 279.267,393.238 279.934,381.905 280,370.5C 285.77,365.404 290.77,359.737 295,353.5C 295.961,340.405 295.628,327.405 294,314.5C 280.167,300.667 266.333,286.833 252.5,273C 228.563,271.363 204.563,271.03 180.5,272C 168.362,283.137 156.529,294.637 145,306.5C 143.383,316.734 143.05,327.067 144,337.5C 149.769,345.604 156.602,352.771 164.5,359C 173.494,359.5 182.494,359.666 191.5,359.5C 191.08,369.247 191.58,378.914 193,388.5C 197.667,393.167 202.333,397.833 207,402.5C 207.5,416.496 207.667,430.496 207.5,444.5C 156.606,436.642 114.439,413.309 81,374.5C 80.0181,373.241 79.6848,371.908 80,370.5C 87.3333,363.167 94.6667,355.833 102,348.5C 103.244,339.909 103.911,331.242 104,322.5C 111.333,315.167 118.667,307.833 126,300.5C 127.595,289.907 127.928,279.24 127,268.5C 114.363,254.862 101.363,241.529 88,228.5C 87.501,224.179 87.3343,219.846 87.5,215.5C 94.5888,215.884 101.589,215.384 108.5,214C 119.667,202.833 130.833,191.667 142,180.5C 143.267,169.238 143.934,157.905 144,146.5C 154,136.5 164,126.5 174,116.5C 175.611,103.236 175.944,89.9031 175,76.5C 167.35,68.0158 159.516,59.6824 151.5,51.5C 169.169,42.5656 187.836,36.899 207.5,34.5C 207.044,51.2367 207.544,67.9034 209,84.5C 220.529,96.3631 232.362,107.863 244.5,119C 257.833,119.333 271.167,119.667 284.5,120C 296,131.5 307.5,143 319,154.5C 319.667,168.5 319.667,182.5 319,196.5C 314.651,200.682 310.485,205.015 306.5,209.5C 308.19,211.519 309.856,213.519 311.5,215.5 Z"/></g>
<g><path style="opacity:1" fill="#00cbb2" d="M 128.5,63.5 C 132.514,63.3345 136.514,63.5012 140.5,64C 146.667,70.1667 152.833,76.3333 159,82.5C 159.667,91.1667 159.667,99.8333 159,108.5C 149,118.5 139,128.5 129,138.5C 127.71,149.737 127.043,161.07 127,172.5C 118.167,181.333 109.333,190.167 100.5,199C 92.5,199.333 84.5,199.667 76.5,200C 74.3333,200.833 72.8333,202.333 72,204.5C 71.0716,215.24 71.4049,225.907 73,236.5C 85.6667,249.167 98.3333,261.833 111,274.5C 111.667,280.5 111.667,286.5 111,292.5C 102.969,300.197 95.3022,308.197 88,316.5C 87.6667,324.5 87.3333,332.5 87,340.5C 81,346.5 75,352.5 69,358.5C 27.5472,295.202 20.5472,228.202 48,157.5C 65.4034,117.942 92.2368,86.6084 128.5,63.5 Z"/></g>
<g><path style="opacity:1" fill="#000102" d="M 236.5,151.5 C 254.17,151.333 271.836,151.5 289.5,152C 291.329,152.273 292.829,153.107 294,154.5C 295.64,172.743 295.973,191.076 295,209.5C 289.599,216.907 283.433,223.74 276.5,230C 268.579,231.568 260.579,231.901 252.5,231C 251.069,230.535 249.903,229.701 249,228.5C 247.733,217.238 247.066,205.905 247,194.5C 241.23,189.404 236.23,183.737 232,177.5C 231.333,170.5 231.333,163.5 232,156.5C 233.025,154.313 234.525,152.646 236.5,151.5 Z"/></g>
<g><path style="opacity:1" fill="#00cbb2" d="M 247.5,167.5 C 258.167,167.5 268.833,167.5 279.5,167.5C 279.667,179.838 279.5,192.171 279,204.5C 275.5,208 272,211.5 268.5,215C 266.866,215.494 265.199,215.66 263.5,215.5C 263.666,206.494 263.5,197.494 263,188.5C 258.367,182.865 253.367,177.532 248,172.5C 247.506,170.866 247.34,169.199 247.5,167.5 Z"/></g>
<g><path style="opacity:0.992" fill="#010101" d="M 455.5,227.5 C 468.513,231.671 481.346,236.338 494,241.5C 495.473,259.406 495.973,277.406 495.5,295.5C 490.167,295.5 484.833,295.5 479.5,295.5C 479.832,283.482 479.499,271.482 478.5,259.5C 470.945,262.073 463.445,264.74 456,267.5C 455.5,279.495 455.333,291.495 455.5,303.5C 466.075,303.205 473.575,307.872 478,317.5C 483.074,338.572 474.907,349.905 453.5,351.5C 449.233,368.935 439.399,382.268 424,391.5C 423.333,394.833 423.333,398.167 424,401.5C 439.483,408.663 454.983,415.83 470.5,423C 493.773,441.487 501.439,465.154 493.5,494C 426.249,495.66 358.915,495.993 291.5,495C 289.667,494.5 288.5,493.333 288,491.5C 287.333,480.833 287.333,470.167 288,459.5C 288.739,456.454 289.572,453.454 290.5,450.5C 295.011,441.008 301.344,432.841 309.5,426C 325.528,417.654 341.861,409.82 358.5,402.5C 359.66,398.541 359.827,394.541 359,390.5C 344.451,381.61 334.784,368.944 330,352.5C 311.541,350.375 302.875,340.042 304,321.5C 307.972,310.351 315.805,304.351 327.5,303.5C 327.832,291.149 327.499,278.815 326.5,266.5C 315.204,262.568 303.87,258.735 292.5,255C 286.741,251.108 286.074,246.441 290.5,241C 297.49,238.393 304.49,235.893 311.5,233.5C 337.953,224.738 364.453,216.071 391,207.5C 412.264,214.199 433.43,221.199 454.5,228.5C 455.107,228.376 455.44,228.043 455.5,227.5 Z"/></g>
<g><path style="opacity:1" fill="#a9a8ae" d="M 387.5,224.5 C 389.857,224.337 392.19,224.503 394.5,225C 416.621,232.207 438.621,239.707 460.5,247.5C 438.621,255.293 416.621,262.793 394.5,270C 392.167,270.667 389.833,270.667 387.5,270C 365.379,262.793 343.379,255.293 321.5,247.5C 343.588,239.805 365.588,232.139 387.5,224.5 Z"/></g>
<g><path style="opacity:1" fill="#87868e" d="M 343.5,272.5 C 359.348,277.393 375.181,282.393 391,287.5C 407.098,282.189 423.265,277.189 439.5,272.5C 439.5,280.167 439.5,287.833 439.5,295.5C 407.5,295.5 375.5,295.5 343.5,295.5C 343.5,287.833 343.5,280.167 343.5,272.5 Z"/></g>
<g><path style="opacity:1" fill="#00cbb2" d="M 186.5,287.5 C 205.836,287.333 225.17,287.5 244.5,288C 256,299.5 267.5,311 279,322.5C 279.667,331.167 279.667,339.833 279,348.5C 273.633,353.532 268.633,358.865 264,364.5C 263.667,375.167 263.333,385.833 263,396.5C 254.969,404.197 247.302,412.197 240,420.5C 239.5,429.494 239.334,438.494 239.5,447.5C 234.167,447.5 228.833,447.5 223.5,447.5C 223.667,430.497 223.5,413.497 223,396.5C 218.367,390.865 213.367,385.532 208,380.5C 207.957,369.07 207.29,357.737 206,346.5C 204.829,345.107 203.329,344.273 201.5,344C 191.167,343.667 180.833,343.333 170.5,343C 167,339.5 163.5,336 160,332.5C 159.333,326.5 159.333,320.5 160,314.5C 169.036,305.632 177.869,296.632 186.5,287.5 Z"/></g>
<g><path style="opacity:1" fill="#fec376" d="M 343.5,311.5 C 375.5,311.5 407.5,311.5 439.5,311.5C 439.666,321.506 439.5,331.506 439,341.5C 433.38,368.284 416.88,382.284 389.5,383.5C 364.274,380.442 349.108,366.442 344,341.5C 343.5,331.506 343.334,321.506 343.5,311.5 Z"/></g>
<g><path style="opacity:1" fill="#000000" d="M 359.5,319.5 C 364.833,319.5 370.167,319.5 375.5,319.5C 375.5,324.833 375.5,330.167 375.5,335.5C 370.167,335.5 364.833,335.5 359.5,335.5C 359.5,330.167 359.5,324.833 359.5,319.5 Z"/></g>
<g><path style="opacity:1" fill="#000000" d="M 407.5,319.5 C 412.833,319.5 418.167,319.5 423.5,319.5C 423.5,324.833 423.5,330.167 423.5,335.5C 418.167,335.5 412.833,335.5 407.5,335.5C 407.5,330.167 407.5,324.833 407.5,319.5 Z"/></g>
<g><path style="opacity:1" fill="#f4ae51" d="M 324.5,319.5 C 325.5,319.5 326.5,319.5 327.5,319.5C 327.5,324.833 327.5,330.167 327.5,335.5C 321.048,334.608 318.548,330.941 320,324.5C 321.025,322.313 322.525,320.646 324.5,319.5 Z"/></g>
<g><path style="opacity:1" fill="#f3ad51" d="M 455.5,319.5 C 462.955,321.076 465.122,325.41 462,332.5C 460.266,334.451 458.099,335.451 455.5,335.5C 455.5,330.167 455.5,324.833 455.5,319.5 Z"/></g>
<g><path style="opacity:1" fill="#f7be73" d="M 375.5,397.5 C 386.126,399.95 396.792,399.95 407.5,397.5C 407.739,399.467 407.406,401.301 406.5,403C 396.5,409 386.5,409 376.5,403C 375.594,401.301 375.261,399.467 375.5,397.5 Z"/></g>
<g><path style="opacity:1" fill="#73717b" d="M 365.5,416.5 C 372.207,416.654 373.707,419.32 370,424.5C 365.711,426.541 361.211,427.874 356.5,428.5C 356.373,426.085 356.207,423.751 356,421.5C 359.388,420.105 362.555,418.438 365.5,416.5 Z"/></g>
<g><path style="opacity:1" fill="#72707a" d="M 414.5,416.5 C 418.578,417.702 422.578,419.202 426.5,421C 426.892,423.354 426.892,425.854 426.5,428.5C 421.933,428.256 417.599,427.09 413.5,425C 412.373,423.247 411.373,421.413 410.5,419.5C 411.901,418.479 413.235,417.479 414.5,416.5 Z"/></g>
<g><path style="opacity:1" fill="#a8a7ad" d="M 388.5,423.5 C 390.527,423.338 392.527,423.505 394.5,424C 395.627,425.753 396.627,427.587 397.5,429.5C 395.833,431.833 393.833,433.833 391.5,435.5C 389.167,433.833 387.167,431.833 385.5,429.5C 386.513,427.473 387.513,425.473 388.5,423.5 Z"/></g>
<g><path style="opacity:1" fill="#87868e" d="M 338.5,428.5 C 339.496,428.414 340.329,428.748 341,429.5C 342.178,434.543 343.511,439.543 345,444.5C 347.317,447.097 350.15,447.93 353.5,447C 359.136,445.066 364.802,443.233 370.5,441.5C 371.167,441.833 371.833,442.167 372.5,442.5C 368.833,454.5 365.167,466.5 361.5,478.5C 342.178,479.5 322.845,479.833 303.5,479.5C 301.429,461.819 307.429,447.652 321.5,437C 327.314,434.243 332.981,431.41 338.5,428.5 Z"/></g>
<g><path style="opacity:1" fill="#88878e" d="M 442.5,428.5 C 454.96,431.804 465.127,438.471 473,448.5C 478.803,458.048 480.97,468.382 479.5,479.5C 460.155,479.833 440.822,479.5 421.5,478.5C 417.833,466.5 414.167,454.5 410.5,442.5C 411,442.167 411.5,441.833 412,441.5C 418.274,443.703 424.608,445.703 431,447.5C 432.888,447.204 434.722,446.704 436.5,446C 439.185,440.438 441.185,434.604 442.5,428.5 Z"/></g>
<g><path style="opacity:1" fill="#a7a6ac" d="M 385.5,453.5 C 389.134,456.155 392.801,456.155 396.5,453.5C 400.088,461.845 402.755,470.511 404.5,479.5C 395.833,479.5 387.167,479.5 378.5,479.5C 380.522,470.747 382.855,462.08 385.5,453.5 Z"/></g>
</svg>
