<?xml version="1.0" encoding="UTF-8"?>
<!DOCTYPE svg PUBLIC "-//W3C//DTD SVG 1.1//EN" "http://www.w3.org/Graphics/SVG/1.1/DTD/svg11.dtd">
<svg xmlns="http://www.w3.org/2000/svg" version="1.1" width="20px" height="20px" style="shape-rendering:geometricPrecision; text-rendering:geometricPrecision; image-rendering:optimizeQuality; fill-rule:evenodd; clip-rule:evenodd" xmlns:xlink="http://www.w3.org/1999/xlink">
<g><path style="opacity:0.978" fill="#010101" d="M 249.5,-0.5 C 253.5,-0.5 257.5,-0.5 261.5,-0.5C 308.566,15.1316 355.899,30.2983 403.5,45C 408.739,46.4128 413.739,48.4128 418.5,51C 425.858,59.0649 426.191,67.3982 419.5,76C 417.112,77.8605 414.446,79.1939 411.5,80C 396.172,82.6103 380.839,85.1103 365.5,87.5C 365.667,99.5046 365.5,111.505 365,123.5C 364.07,126.362 362.403,128.695 360,130.5C 359.667,152.5 359.333,174.5 359,196.5C 356.46,204.878 350.96,209.878 342.5,211.5C 340.196,236.781 329.029,257.114 309,272.5C 308.333,275.833 308.333,279.167 309,282.5C 330.252,296.209 351.419,310.042 372.5,324C 384.429,327.865 396.429,331.532 408.5,335C 436.496,346.669 452.996,367.502 458,397.5C 458.667,427.167 458.667,456.833 458,486.5C 454.384,498.946 446.55,507.279 434.5,511.5C 315.167,511.5 195.833,511.5 76.5,511.5C 66.0268,507.866 58.5268,500.866 54,490.5C 52.4425,480.894 52.1092,471.228 53,461.5C 54.1585,458.507 56.3252,456.84 59.5,456.5C 62.7872,457.055 65.2872,458.722 67,461.5C 67.3333,468.5 67.6667,475.5 68,482.5C 69.6748,488.841 73.5082,493.341 79.5,496C 92.1623,496.5 104.829,496.667 117.5,496.5C 117.333,484.829 117.5,473.162 118,461.5C 122.219,455.258 126.885,454.925 132,460.5C 132.5,472.495 132.667,484.495 132.5,496.5C 214.5,496.5 296.5,496.5 378.5,496.5C 378.333,484.495 378.5,472.495 379,460.5C 381.141,457.679 383.975,456.346 387.5,456.5C 389.787,457.619 391.621,459.285 393,461.5C 393.5,473.162 393.667,484.829 393.5,496.5C 405.838,496.667 418.171,496.5 430.5,496C 435.91,494.257 439.744,490.757 442,485.5C 443.633,457.215 443.966,428.882 443,400.5C 439.956,380.225 429.789,364.725 412.5,354C 399.147,348.605 385.481,344.105 371.5,340.5C 354.89,349.794 338.557,359.46 322.5,369.5C 302.39,381.058 282.39,392.892 262.5,405C 260.361,406.404 258.028,407.237 255.5,407.5C 217.094,386.127 179.094,363.96 141.5,341C 87.0089,347.171 62.1755,377.671 67,432.5C 65.5236,435.667 63.0236,437.333 59.5,437.5C 56.3252,437.16 54.1585,435.493 53,432.5C 52.3333,420.833 52.3333,409.167 53,397.5C 57.1228,369.387 71.9562,349.221 97.5,337C 111.12,332.512 124.786,328.179 138.5,324C 159.667,310.167 180.833,296.333 202,282.5C 202.667,279.167 202.667,275.833 202,272.5C 181.971,257.114 170.804,236.781 168.5,211.5C 159.415,210.527 153.915,205.527 152,196.5C 151.667,174.5 151.333,152.5 151,130.5C 148.597,128.695 146.93,126.362 146,123.5C 145.5,111.505 145.333,99.5046 145.5,87.5C 133.741,86.0147 122.074,84.0147 110.5,81.5C 109.167,93.1667 109.167,104.833 110.5,116.5C 116.931,117.762 121.431,121.429 124,127.5C 124.333,136.167 124.667,144.833 125,153.5C 128.5,173.833 132,194.167 135.5,214.5C 135.188,221.299 132.188,226.466 126.5,230C 110.592,231.636 94.5922,231.969 78.5,231C 71.2298,227.987 67.2298,222.487 66.5,214.5C 70.1928,194.202 73.6928,173.869 77,153.5C 77.3333,144.833 77.6667,136.167 78,127.5C 81.0057,120.75 86.1724,117.084 93.5,116.5C 93.8325,103.15 93.4992,89.8167 92.5,76.5C 84.6099,68.0626 84.6099,59.5626 92.5,51C 96.2707,48.7813 100.271,47.1146 104.5,46C 153.101,30.965 201.434,15.465 249.5,-0.5 Z"/></g>
<g><path style="opacity:1" fill="#3f6e90" d="M 272.5,20.5 C 272.177,34.4123 272.51,48.2456 273.5,62C 272.552,62.4828 271.552,62.6495 270.5,62.5C 259.828,62.3335 249.161,62.5002 238.5,63C 210.179,66.5818 181.846,70.0818 153.5,73.5C 138.471,71.1591 123.471,68.6591 108.5,66C 106.059,65.964 104.059,65.1307 102.5,63.5C 152.664,46.8742 202.998,30.7075 253.5,15C 260.182,15.7285 266.516,17.5619 272.5,20.5 Z"/></g>
<g><path style="opacity:1" fill="#355d7c" d="M 272.5,20.5 C 318.085,34.3065 363.419,48.8065 408.5,64C 391.038,67.8004 373.371,70.9671 355.5,73.5C 348.204,72.1703 340.871,71.6703 333.5,72C 331.07,74.3046 330.07,77.1379 330.5,80.5C 329.814,79.1516 328.814,77.985 327.5,77C 321.829,76.4693 316.162,75.9693 310.5,75.5C 310.342,71.8285 308.675,68.9951 305.5,67C 293.659,65.6876 281.992,64.1876 270.5,62.5C 271.552,62.6495 272.552,62.4828 273.5,62C 272.51,48.2456 272.177,34.4123 272.5,20.5 Z"/></g>
<g><path style="opacity:1" fill="#3f6e91" d="M 310.5,75.5 C 316.162,75.9693 321.829,76.4693 327.5,77C 328.814,77.985 329.814,79.1516 330.5,80.5C 331.277,83.1122 332.944,84.9455 335.5,86C 340.519,86.4108 345.519,86.9108 350.5,87.5C 350.5,97.8333 350.5,108.167 350.5,118.5C 287.167,118.5 223.833,118.5 160.5,118.5C 160.172,107.986 160.506,97.6532 161.5,87.5C 161.5,97.5 161.5,107.5 161.5,117.5C 203.833,117.5 246.167,117.5 288.5,117.5C 288.5,105.167 288.5,92.8333 288.5,80.5C 294.159,81.1997 299.825,81.3664 305.5,81C 308.056,79.9455 309.723,78.1122 310.5,75.5 Z"/></g>
<g><path style="opacity:1" fill="#497fa9" d="M 288.5,80.5 C 288.5,92.8333 288.5,105.167 288.5,117.5C 246.167,117.5 203.833,117.5 161.5,117.5C 161.5,107.5 161.5,97.5 161.5,87.5C 186.849,84.6647 212.182,81.498 237.5,78C 254.666,76.781 271.666,77.6143 288.5,80.5 Z"/></g>
<g><path style="opacity:1" fill="#fedf7c" d="M 93.5,132.5 C 98.8333,132.5 104.167,132.5 109.5,132.5C 109.5,136.833 109.5,141.167 109.5,145.5C 104.167,145.5 98.8333,145.5 93.5,145.5C 93.5,141.167 93.5,136.833 93.5,132.5 Z"/></g>
<g><path style="opacity:1" fill="#e7c27f" d="M 166.5,133.5 C 172.5,133.5 178.5,133.5 184.5,133.5C 184.666,139.842 184.5,146.175 184,152.5C 182.773,154.726 180.939,156.226 178.5,157C 174.514,157.499 170.514,157.666 166.5,157.5C 166.5,149.5 166.5,141.5 166.5,133.5 Z"/></g>
<g><path style="opacity:1" fill="#fedccd" d="M 288.5,133.5 C 288.955,165.203 288.455,196.869 287,228.5C 282.804,246.735 273.637,261.901 259.5,274C 255.179,274.499 250.846,274.666 246.5,274.5C 219.797,270.303 200.631,255.97 189,231.5C 185.745,222.03 183.411,212.364 182,202.5C 178.736,198.618 174.57,196.451 169.5,196C 168.667,195.167 167.833,194.333 167,193.5C 166.5,186.508 166.334,179.508 166.5,172.5C 177.017,174.158 186.184,171.491 194,164.5C 196.478,161.211 198.144,157.544 199,153.5C 199.5,146.842 199.666,140.175 199.5,133.5C 229.167,133.5 258.833,133.5 288.5,133.5 Z"/></g>
<g><path style="opacity:1" fill="#fcc9bc" d="M 288.5,133.5 C 296.167,133.5 303.833,133.5 311.5,133.5C 311.334,140.175 311.5,146.842 312,153.5C 314.055,163.222 319.888,169.389 329.5,172C 334.489,172.499 339.489,172.666 344.5,172.5C 344.666,179.508 344.5,186.508 344,193.5C 343.167,194.333 342.333,195.167 341.5,196C 336.43,196.451 332.264,198.618 329,202.5C 324.97,242.859 303.136,267.026 263.5,275C 257.651,275.818 251.985,275.652 246.5,274.5C 250.846,274.666 255.179,274.499 259.5,274C 273.637,261.901 282.804,246.735 287,228.5C 288.455,196.869 288.955,165.203 288.5,133.5 Z"/></g>
<g><path style="opacity:1" fill="#e1b567" d="M 326.5,133.5 C 332.5,133.5 338.5,133.5 344.5,133.5C 344.5,141.5 344.5,149.5 344.5,157.5C 340.154,157.666 335.821,157.499 331.5,157C 329.667,155.833 328.167,154.333 327,152.5C 326.5,146.175 326.334,139.842 326.5,133.5 Z"/></g>
<g><path style="opacity:1" fill="#c2aa5f" d="M 93.5,132.5 C 93.5,136.833 93.5,141.167 93.5,145.5C 98.8333,145.5 104.167,145.5 109.5,145.5C 104.025,146.489 98.358,146.822 92.5,146.5C 92.1805,141.637 92.5139,136.97 93.5,132.5 Z"/></g>
<g><path style="opacity:1" fill="#dff1fa" d="M 91.5,161.5 C 98.1667,161.5 104.833,161.5 111.5,161.5C 114.168,179.843 116.835,198.177 119.5,216.5C 107.167,216.5 94.8333,216.5 82.5,216.5C 84.7489,198.007 87.7489,179.674 91.5,161.5 Z"/></g>
<g><path style="opacity:1" fill="#5d514b" d="M 219.5,282.5 C 218.523,285.287 218.19,288.287 218.5,291.5C 217.194,288.313 217.194,284.98 218.5,281.5C 219.107,281.624 219.44,281.957 219.5,282.5 Z"/></g>
<g><path style="opacity:1" fill="#fbdacb" d="M 219.5,282.5 C 243.432,293.057 267.432,293.057 291.5,282.5C 293.384,296.105 292.217,309.438 288,322.5C 287.161,323.624 285.994,324.291 284.5,324.5C 264.108,328.664 243.775,328.497 223.5,324C 222.809,322.933 222.309,321.766 222,320.5C 220.019,310.918 218.853,301.251 218.5,291.5C 218.19,288.287 218.523,285.287 219.5,282.5 Z"/></g>
<g><path style="opacity:1" fill="#487ea7" d="M 202.5,300.5 C 205.152,314.103 208.652,327.77 213,341.5C 217.956,353.741 223.623,365.407 230,376.5C 205.249,361.541 180.416,346.707 155.5,332C 171.232,321.477 186.899,310.977 202.5,300.5 Z"/></g>
<g><path style="opacity:1" fill="#487da7" d="M 306.5,300.5 C 323.201,310.356 339.534,320.856 355.5,332C 330.584,346.707 305.751,361.541 281,376.5C 287.377,365.407 293.044,353.741 298,341.5C 302.899,328.239 305.733,314.573 306.5,300.5 Z"/></g>
<g><path style="opacity:1" fill="#3f6f92" d="M 322.5,369.5 C 358.089,374.922 379.589,395.255 387,430.5C 387.5,439.16 387.666,447.827 387.5,456.5C 383.975,456.346 381.141,457.679 379,460.5C 378.5,472.495 378.333,484.495 378.5,496.5C 296.5,496.5 214.5,496.5 132.5,496.5C 132.667,484.495 132.5,472.495 132,460.5C 126.885,454.925 122.219,455.258 118,461.5C 117.5,473.162 117.333,484.829 117.5,496.5C 104.829,496.667 92.1623,496.5 79.5,496C 73.5082,493.341 69.6748,488.841 68,482.5C 67.6667,475.5 67.3333,468.5 67,461.5C 65.2872,458.722 62.7872,457.055 59.5,456.5C 59.5,450.167 59.5,443.833 59.5,437.5C 63.0236,437.333 65.5236,435.667 67,432.5C 62.1755,377.671 87.0089,347.171 141.5,341C 179.094,363.96 217.094,386.127 255.5,407.5C 258.028,407.237 260.361,406.404 262.5,405C 282.39,392.892 302.39,381.058 322.5,369.5 Z"/></g>
<g><path style="opacity:1" fill="#355d7c" d="M 387.5,456.5 C 387.666,447.827 387.5,439.16 387,430.5C 379.589,395.255 358.089,374.922 322.5,369.5C 338.557,359.46 354.89,349.794 371.5,340.5C 385.481,344.105 399.147,348.605 412.5,354C 429.789,364.725 439.956,380.225 443,400.5C 443.966,428.882 443.633,457.215 442,485.5C 439.744,490.757 435.91,494.257 430.5,496C 418.171,496.5 405.838,496.667 393.5,496.5C 393.667,484.829 393.5,473.162 393,461.5C 391.621,459.285 389.787,457.619 387.5,456.5 Z"/></g>
<g><path style="opacity:1" fill="#f1f7fb" d="M 228.5,341.5 C 228.917,340.876 229.584,340.543 230.5,340.5C 237.762,341.886 245.096,342.553 252.5,342.5C 262.531,341.996 272.531,341.496 282.5,341C 275.118,356.951 266.118,371.784 255.5,385.5C 244.971,371.775 235.971,357.109 228.5,341.5 Z"/></g>
</svg>
