<?xml version="1.0" encoding="UTF-8"?>
<!DOCTYPE svg PUBLIC "-//W3C//DTD SVG 1.1//EN" "http://www.w3.org/Graphics/SVG/1.1/DTD/svg11.dtd">
<svg xmlns="http://www.w3.org/2000/svg" version="1.1" width="100px" height="100px" style="shape-rendering:geometricPrecision; text-rendering:geometricPrecision; image-rendering:optimizeQuality; fill-rule:evenodd; clip-rule:evenodd" xmlns:xlink="http://www.w3.org/1999/xlink">
<g><path style="opacity:0.986" fill="#020202" d="M 165.5,-0.5 C 170.167,-0.5 174.833,-0.5 179.5,-0.5C 193.506,5.82667 199.506,16.8267 197.5,32.5C 208.5,32.5 219.5,32.5 230.5,32.5C 228.49,16.8365 234.49,5.83647 248.5,-0.5C 253.167,-0.5 257.833,-0.5 262.5,-0.5C 276.513,5.84123 282.513,16.8412 280.5,32.5C 291.5,32.5 302.5,32.5 313.5,32.5C 311.494,16.8267 317.494,5.82667 331.5,-0.5C 336.167,-0.5 340.833,-0.5 345.5,-0.5C 359.805,5.77091 365.472,16.7709 362.5,32.5C 373.833,32.5 385.167,32.5 396.5,32.5C 394.064,17.0455 399.731,6.0455 413.5,-0.5C 418.5,-0.5 423.5,-0.5 428.5,-0.5C 442.27,6.03233 447.936,17.0323 445.5,32.5C 461.473,30.3232 474.973,34.9899 486,46.5C 489.721,51.2754 492.388,56.6088 494,62.5C 495.638,103.128 495.971,143.795 495,184.5C 493.59,187.789 491.09,189.456 487.5,189.5C 483.98,188.817 481.48,186.817 480,183.5C 479.5,165.836 479.333,148.17 479.5,130.5C 474.5,130.5 469.5,130.5 464.5,130.5C 347.5,130.5 230.5,130.5 113.5,130.5C 113.167,177.838 113.5,225.171 114.5,272.5C 129.486,286.986 144.319,301.653 159,316.5C 159.75,315.874 160.584,315.374 161.5,315C 251.833,314.333 342.167,314.333 432.5,315C 436.212,317.513 437.378,321.013 436,325.5C 434.871,327.141 433.371,328.141 431.5,328.5C 344.831,328.167 258.164,328.5 171.5,329.5C 171.624,330.107 171.957,330.44 172.5,330.5C 192.799,350.298 212.965,370.298 233,390.5C 234.304,406.742 234.971,423.075 235,439.5C 238.333,442.833 241.667,446.167 245,449.5C 247.677,458.156 244.511,461.989 235.5,461C 232.167,457.667 228.833,454.333 225.5,451C 209.075,450.971 192.742,450.304 176.5,449C 156.299,428.632 135.965,408.465 115.5,388.5C 115.44,387.957 115.107,387.624 114.5,387.5C 113.17,416.331 113.17,444.997 114.5,473.5C 115.894,485.069 122.228,492.569 133.5,496C 221.167,496.333 308.833,496.667 396.5,497C 400.023,498.182 402.023,500.682 402.5,504.5C 402.429,507.652 401.095,509.986 398.5,511.5C 309.167,511.5 219.833,511.5 130.5,511.5C 115.381,507.218 105.214,497.552 100,482.5C 98.6982,445.539 98.0316,408.539 98,371.5C 72,345.5 46,319.5 20,293.5C 14.0568,283.78 14.0568,274.113 20,264.5C 29.8333,254.667 39.6667,244.833 49.5,235C 58.8537,229.009 68.187,229.009 77.5,235C 84.636,241.135 91.4693,247.635 98,254.5C 98.0178,190.13 98.6844,125.797 100,61.5C 108.738,39.6244 124.905,29.9577 148.5,32.5C 145.528,16.7709 151.195,5.77091 165.5,-0.5 Z"/></g>
<g><path style="opacity:1" fill="#aac3d4" d="M 169.5,14.5 C 174.347,13.8404 178.181,15.5071 181,19.5C 181.667,33.1667 181.667,46.8333 181,60.5C 178.103,65.1549 173.937,66.6549 168.5,65C 166.622,63.4571 165.122,61.6238 164,59.5C 163.333,46.5 163.333,33.5 164,20.5C 165.36,17.9774 167.193,15.9774 169.5,14.5 Z"/></g>
<g><path style="opacity:1" fill="#abc4d5" d="M 252.5,14.5 C 257.814,13.7397 261.647,15.7397 264,20.5C 264.667,33.5 264.667,46.5 264,59.5C 261.549,65.0891 257.383,66.9224 251.5,65C 249.622,63.4571 248.122,61.6238 247,59.5C 246.333,46.5 246.333,33.5 247,20.5C 248.36,17.9774 250.193,15.9774 252.5,14.5 Z"/></g>
<g><path style="opacity:1" fill="#aac3d4" d="M 334.5,14.5 C 340.204,13.4361 344.371,15.4361 347,20.5C 347.667,33.5 347.667,46.5 347,59.5C 343.608,65.4667 338.774,66.9667 332.5,64C 331.299,63.0975 330.465,61.9308 330,60.5C 329.333,46.8333 329.333,33.1667 330,19.5C 331.707,17.9625 333.207,16.2959 334.5,14.5 Z"/></g>
<g><path style="opacity:1" fill="#a9c1d2" d="M 417.5,14.5 C 423.204,13.4361 427.371,15.4361 430,20.5C 430.667,33.5 430.667,46.5 430,59.5C 426.608,65.4667 421.774,66.9667 415.5,64C 414.299,63.0975 413.465,61.9308 413,60.5C 412.333,46.8333 412.333,33.1667 413,19.5C 414.366,17.6383 415.866,15.9717 417.5,14.5 Z"/></g>
<g><path style="opacity:1" fill="#fdcc68" d="M 445.5,48.5 C 448.187,48.3359 450.854,48.5026 453.5,49C 459.484,54.1334 462.984,60.6334 464,68.5C 464.5,84.1631 464.667,99.8298 464.5,115.5C 347.5,115.5 230.5,115.5 113.5,115.5C 113.333,99.8298 113.5,84.1631 114,68.5C 119.52,51.9788 131.02,44.9788 148.5,47.5C 146.548,59.4829 150.215,69.3163 159.5,77C 171.068,82.6946 181.568,81.1946 191,72.5C 195.932,64.9223 197.765,56.5889 196.5,47.5C 208.167,47.5 219.833,47.5 231.5,47.5C 229.519,72.0255 240.519,82.5255 264.5,79C 272.032,75.4554 276.865,69.6221 279,61.5C 279.499,56.8452 279.666,52.1785 279.5,47.5C 291.167,47.5 302.833,47.5 314.5,47.5C 312.871,73.3878 324.538,83.5544 349.5,78C 360.245,70.6664 364.578,60.4998 362.5,47.5C 374.167,47.5 385.833,47.5 397.5,47.5C 395.912,73.4318 407.579,83.5985 432.5,78C 442.714,70.8866 447.048,61.0532 445.5,48.5 Z"/></g>
<g><path style="opacity:1" fill="#fcbb60" d="M 445.5,48.5 C 461.251,44.9594 472.418,50.6261 479,65.5C 479.5,82.1633 479.667,98.83 479.5,115.5C 474.5,115.5 469.5,115.5 464.5,115.5C 464.667,99.8298 464.5,84.1631 464,68.5C 462.984,60.6334 459.484,54.1334 453.5,49C 450.854,48.5026 448.187,48.3359 445.5,48.5 Z"/></g>
<g><path style="opacity:1" fill="#f7f3f1" d="M 464.5,130.5 C 464.667,246.167 464.5,361.834 464,477.5C 462.196,485.116 458.363,491.45 452.5,496.5C 442.161,496.334 431.828,496.5 421.5,497C 418.72,498.913 417.053,501.413 416.5,504.5C 411.833,504.5 407.167,504.5 402.5,504.5C 402.023,500.682 400.023,498.182 396.5,497C 308.833,496.667 221.167,496.333 133.5,496C 122.228,492.569 115.894,485.069 114.5,473.5C 114.169,444.995 114.502,416.662 115.5,388.5C 135.965,408.465 156.299,428.632 176.5,449C 192.742,450.304 209.075,450.971 225.5,451C 228.833,454.333 232.167,457.667 235.5,461C 244.511,461.989 247.677,458.156 245,449.5C 241.667,446.167 238.333,442.833 235,439.5C 234.971,423.075 234.304,406.742 233,390.5C 212.965,370.298 192.799,350.298 172.5,330.5C 258.833,329.833 345.167,329.167 431.5,328.5C 433.371,328.141 434.871,327.141 436,325.5C 437.378,321.013 436.212,317.513 432.5,315C 342.167,314.333 251.833,314.333 161.5,315C 160.584,315.374 159.75,315.874 159,316.5C 144.319,301.653 129.486,286.986 114.5,272.5C 113.5,225.171 113.167,177.838 113.5,130.5C 230.5,130.5 347.5,130.5 464.5,130.5 Z"/></g>
<g><path style="opacity:1" fill="#f8e9df" d="M 464.5,130.5 C 469.5,130.5 474.5,130.5 479.5,130.5C 479.333,148.17 479.5,165.836 480,183.5C 481.48,186.817 483.98,188.817 487.5,189.5C 487.5,194.167 487.5,198.833 487.5,203.5C 484.042,204.108 481.542,206.108 480,209.5C 479.667,299.167 479.333,388.833 479,478.5C 474.122,490.354 465.289,496.354 452.5,496.5C 458.363,491.45 462.196,485.116 464,477.5C 464.5,361.834 464.667,246.167 464.5,130.5 Z"/></g>
<g><path style="opacity:1" fill="#080807" d="M 160.5,165.5 C 251.167,165.333 341.834,165.5 432.5,166C 436.212,168.513 437.378,172.013 436,176.5C 434.786,178.049 433.286,179.215 431.5,180C 341.833,180.667 252.167,180.667 162.5,180C 157.776,177.565 156.276,173.731 158,168.5C 159.045,167.627 159.878,166.627 160.5,165.5 Z"/></g>
<g><path style="opacity:0.963" fill="#070707" d="M 487.5,203.5 C 491.09,203.544 493.59,205.211 495,208.5C 495.667,297.833 495.667,387.167 495,476.5C 491.611,494.716 481.111,506.382 463.5,511.5C 449.167,511.5 434.833,511.5 420.5,511.5C 418.396,509.628 417.063,507.295 416.5,504.5C 417.053,501.413 418.72,498.913 421.5,497C 431.828,496.5 442.161,496.334 452.5,496.5C 465.289,496.354 474.122,490.354 479,478.5C 479.333,388.833 479.667,299.167 480,209.5C 481.542,206.108 484.042,204.108 487.5,203.5 Z"/></g>
<g><path style="opacity:1" fill="#090909" d="M 162.5,214.5 C 252.167,214.333 341.834,214.5 431.5,215C 436.689,217.913 437.856,222.08 435,227.5C 434.25,228.126 433.416,228.626 432.5,229C 341.833,229.667 251.167,229.667 160.5,229C 156.054,223.397 156.721,218.564 162.5,214.5 Z"/></g>
<g><path style="opacity:1" fill="#f78ab7" d="M 59.5,246.5 C 62.6492,246.211 65.6492,246.711 68.5,248C 75.0148,254.348 81.3481,260.848 87.5,267.5C 75.8475,279.653 64.0142,291.653 52,303.5C 45.6667,297.167 39.3333,290.833 33,284.5C 31.5167,281.298 31.1834,277.964 32,274.5C 41.3689,265.298 50.5356,255.965 59.5,246.5 Z"/></g>
<g><path style="opacity:1" fill="#010101" d="M 161.5,264.5 C 251.501,264.333 341.501,264.5 431.5,265C 436.416,267.489 437.749,271.323 435.5,276.5C 434.335,277.584 433.002,278.417 431.5,279C 341.5,279.667 251.5,279.667 161.5,279C 158.634,277.607 157.301,275.274 157.5,272C 157.603,270.439 157.937,268.939 158.5,267.5C 159.77,266.712 160.77,265.712 161.5,264.5 Z"/></g>
<g><path style="opacity:1" fill="#90b1f9" d="M 210.5,401.5 C 171.167,362.5 131.833,323.5 92.5,284.5C 94.2023,281.605 96.5356,279.772 99.5,279C 138.347,318.014 177.347,356.847 216.5,395.5C 214.812,397.854 212.812,399.854 210.5,401.5 Z"/></g>
<g><path style="opacity:1" fill="#9fc7fe" d="M 92.5,284.5 C 131.833,323.5 171.167,362.5 210.5,401.5C 208.539,403.963 206.372,406.297 204,408.5C 165,369.5 126,330.5 87,291.5C 87.7719,288.536 89.6052,286.202 92.5,284.5 Z"/></g>
<g><path style="opacity:1" fill="#9cc3f9" d="M 74.5,301.5 C 114.083,339.582 153.25,378.249 192,417.5C 192.667,418.5 192.667,419.5 192,420.5C 188.5,424 185,427.5 181.5,431C 180.833,431.667 180.167,431.667 179.5,431C 140.5,392 101.5,353 62.5,314C 66.7036,309.964 70.7036,305.798 74.5,301.5 Z"/></g>
<g><path style="opacity:1" fill="#424141" d="M 431.5,328.5 C 345.167,329.167 258.833,329.833 172.5,330.5C 171.957,330.44 171.624,330.107 171.5,329.5C 258.164,328.5 344.831,328.167 431.5,328.5 Z"/></g>
<g><path style="opacity:1" fill="#000000" d="M 251.5,364.5 C 312.168,364.333 372.834,364.5 433.5,365C 436.886,368.373 437.386,372.206 435,376.5C 434.25,377.126 433.416,377.626 432.5,378C 372.167,378.667 311.833,378.667 251.5,378C 247.541,373.501 247.541,369.001 251.5,364.5 Z"/></g>
<g><path style="opacity:1" fill="#92908f" d="M 115.5,388.5 C 114.502,416.662 114.169,444.995 114.5,473.5C 113.17,444.997 113.17,416.331 114.5,387.5C 115.107,387.624 115.44,387.957 115.5,388.5 Z"/></g>
<g><path style="opacity:1" fill="#ebddd3" d="M 218.5,414.5 C 219.491,421.313 219.825,428.313 219.5,435.5C 212.492,435.666 205.492,435.5 198.5,435C 205.369,428.298 212.036,421.465 218.5,414.5 Z"/></g>
</svg>
