<?xml version="1.0" encoding="UTF-8"?>
<svg xmlns="http://www.w3.org/2000/svg" xmlns:xlink="http://www.w3.org/1999/xlink" viewBox="0 0 250 250" width="250px" height="250px">
<g id="surface121117950">
<path style=" stroke:none;fill-rule:evenodd;fill:rgb(100%,0%,0%);fill-opacity:1;" d="M 65 25 L 80 70 L 80 100 L 90 100 L 90 70 L 105 25 L 95 25 L 85 55 L 75 25 Z M 120 45 C 114.667969 45 112.050781 45.839844 108.789062 48.515625 C 105.664062 51.152344 104.804688 53.183594 105 60 L 105 85 C 105 89.980469 105.820312 93.261719 108.828125 96.171875 C 111.953125 99.082031 114.902344 100 120 100 C 125.332031 100 128.242188 99.082031 131.25 96.171875 C 134.375 93.378906 135 89.980469 135 85 L 135 60 C 135 55.585938 134.21875 51.40625 131.191406 48.613281 C 128.066406 45.742188 124.84375 45 120 45 Z M 145 45 L 145 90 C 145 94.863281 149.902344 100 155 100 C 160.097656 100 162.792969 97.441406 165 95 L 165 100 L 175 100 L 175 45 L 165 45 L 165 85 C 164.941406 88.417969 160.917969 90 160 90 C 158.964844 90 155 89.785156 155 85 L 155 45 Z M 120 55 C 121.503906 55 125 54.980469 125 60 L 125 85 C 125 89.84375 121.621094 90 120 90 C 118.496094 90 115 89.941406 115 85 L 115 60 C 115 55.917969 117.167969 55 120 55 Z M 50 110 C 32.03125 110 20 121.914062 20 140 L 20 187.5 C 20 205.585938 32.03125 220 50 220 L 200 220 C 217.96875 220 230 208.085938 230 190 L 230 140 C 230 121.914062 217.96875 110 200 110 Z M 60 130 L 90 130 L 90 140 L 80 140 L 80 200 L 70 200 L 70 140 L 60 140 Z M 130 130 L 140 130 L 140 150 C 141.152344 148.203125 142.871094 146.777344 144.511719 145.976562 C 146.113281 145.15625 147.734375 144.6875 149.375 144.6875 C 152.617188 144.6875 155.15625 145.859375 156.894531 148.046875 C 158.632812 150.253906 160 153.183594 160 157.5 L 160 187.5 C 160 191.210938 158.75 193.515625 157.109375 195.488281 C 155.507812 197.460938 153.105469 199.960938 150 200 C 144.746094 200.058594 141.933594 197.246094 140 195 L 140 200 L 130 200 Z M 90 145 L 100 145 L 100 185 C 100 186.152344 101.347656 190.039062 105 190 C 109.0625 189.960938 109.101562 186.171875 110 185 L 110 145 L 120 145 L 120 200 L 110 200 L 110 195 C 108.144531 197.1875 107.1875 197.871094 105.097656 198.90625 C 103.027344 200.078125 100.917969 200 98.964844 200 C 96.542969 200 93.789062 197.8125 92.5 196.171875 C 91.347656 194.667969 90 193.125 90 190 Z M 180.996094 145 C 185.742188 145 189.082031 146.015625 191.601562 148.671875 C 194.179688 151.328125 195 154.433594 195 159.433594 L 195 175 L 175 175 L 175 182.734375 C 175 185.527344 175.371094 187.304688 176.09375 188.359375 C 176.777344 189.511719 178.164062 190.019531 180 190 C 182.03125 189.980469 183.320312 189.570312 184.003906 188.652344 C 184.707031 187.832031 185 185.507812 185 182.5 L 185 180 L 195 180 L 195 182.96875 C 195 188.417969 194.570312 192.480469 191.875 195.136719 C 189.335938 197.929688 185.371094 199.21875 180.175781 199.21875 C 175.429688 199.21875 171.71875 197.8125 169.0625 194.921875 C 166.40625 192.03125 165.019531 188.066406 165.019531 182.96875 L 165.019531 159.433594 C 165.019531 154.902344 166.601562 151.542969 169.511719 148.554688 C 171.855469 146.152344 176.25 145 180.996094 145 Z M 145 152.5 C 142.246094 152.5 140.039062 154.980469 140 157.5 L 140 187.5 C 140.039062 188.945312 142.246094 190 145 190 C 147.753906 190 150 187.871094 150 185.117188 L 150 160 C 150 155 147.753906 152.5 145 152.5 Z M 180 155 C 177.246094 155 175.039062 157.324219 175 160 L 175 165 L 185 165 L 185 160 C 185 156.933594 182.753906 155 180 155 Z M 180 155 "/>
</g>
</svg>
